<?xml version="1.0" encoding="utf-8"?>
<!-- Generator: Adobe Illustrator 17.0.2, SVG Export Plug-In . SVG Version: 6.00 Build 0)  -->
<!DOCTYPE svg PUBLIC "-//W3C//DTD SVG 1.1//EN" "http://www.w3.org/Graphics/SVG/1.1/DTD/svg11.dtd">
<svg version="1.1" id="Layer_1" xmlns="http://www.w3.org/2000/svg" xmlns:xlink="http://www.w3.org/1999/xlink" x="0px" y="0px"
	 width="61.942px" height="62.192px" viewBox="0 0 61.942 62.192" enable-background="new 0 0 61.942 62.192" xml:space="preserve">
<path fill="#585757" stroke="#585757" stroke-width="1.4717" stroke-linecap="round" stroke-linejoin="round" stroke-miterlimit="10" d="
	M55.762,34.842c0.196-1.325,0.296-2.692,0.278-4.077c-0.023-1.39-0.155-2.747-0.391-4.068l6.039-5.608
	c-0.621-1.911-1.422-3.741-2.365-5.485l-8.215,0.531c-1.631-2.197-3.597-4.123-5.84-5.69l0.313-8.224
	C43.816,1.322,41.963,0.563,40.028,0l-5.435,6.181c-1.326-0.2-2.692-0.295-4.078-0.281c-1.393,0.026-2.747,0.154-4.073,0.391
	l-5.598-6.04c-1.918,0.618-3.752,1.426-5.496,2.366l0.532,8.214c-2.198,1.621-4.119,3.596-5.686,5.84l-8.224-0.314
	c-0.898,1.771-1.652,3.619-2.226,5.544l6.19,5.44c-0.199,1.335-0.306,2.697-0.287,4.087c0.022,1.389,0.159,2.743,0.391,4.068
	L0,41.091c0.618,1.925,1.422,3.764,2.372,5.494l8.209-0.526c1.626,2.197,3.601,4.118,5.839,5.684l-0.312,8.233
	c1.767,0.894,3.619,1.64,5.554,2.217l5.43-6.19c1.336,0.199,2.698,0.304,4.087,0.285c1.391-0.021,2.743-0.158,4.069-0.381
	l5.599,6.035c1.916-0.627,3.75-1.426,5.491-2.371l-0.527-8.209c2.197-1.636,4.122-3.605,5.685-5.84l8.223,0.313
	c0.905-1.767,1.653-3.624,2.226-5.559L55.762,34.842z M30.847,40.445c-5.172,0-9.359-4.182-9.359-9.354
	c0-5.163,4.188-9.35,9.359-9.35c5.163,0,9.351,4.186,9.351,9.35C40.197,36.264,36.01,40.445,30.847,40.445z"/>
</svg>
